<mxfile host="Electron" modified="2023-12-07T16:49:11.594Z" agent="Mozilla/5.0 (X11; Linux x86_64) AppleWebKit/537.36 (KHTML, like Gecko) draw.io/22.0.3 Chrome/114.0.5735.289 Electron/25.8.4 Safari/537.36" etag="CcgByYup7-ZH4HeROEUr" version="22.0.3" type="device">
  <diagram name="Page-1" id="0TxAQTwwX-CK78KyN3wF">
    <mxGraphModel dx="819" dy="443" grid="1" gridSize="10" guides="1" tooltips="1" connect="1" arrows="1" fold="1" page="1" pageScale="1" pageWidth="850" pageHeight="1100" math="0" shadow="0">
      <root>
        <mxCell id="0" />
        <mxCell id="1" parent="0" />
        <mxCell id="kzASaQrJc4nUuHppkAC4-1" value="Actor" style="shape=umlActor;verticalLabelPosition=bottom;verticalAlign=top;html=1;fillColor=#1ba1e2;fontColor=#ffffff;strokeColor=#006EAF;" vertex="1" parent="1">
          <mxGeometry x="80" y="110" width="30" height="60" as="geometry" />
        </mxCell>
        <mxCell id="kzASaQrJc4nUuHppkAC4-2" value="" style="html=1;points=[];perimeter=orthogonalPerimeter;fillColor=#1ba1e2;fontColor=#ffffff;strokeColor=#006EAF;" vertex="1" parent="1">
          <mxGeometry x="92.5" y="200" width="5" height="290" as="geometry" />
        </mxCell>
        <mxCell id="kzASaQrJc4nUuHppkAC4-3" value="" style="html=1;verticalAlign=bottom;labelBackgroundColor=none;endArrow=block;endFill=1;" edge="1" parent="1">
          <mxGeometry width="160" relative="1" as="geometry">
            <mxPoint x="97.5" y="220" as="sourcePoint" />
            <mxPoint x="257.5" y="220" as="targetPoint" />
          </mxGeometry>
        </mxCell>
        <mxCell id="kzASaQrJc4nUuHppkAC4-4" value="1: dup() : boolean" style="text;html=1;strokeColor=none;fillColor=none;align=left;verticalAlign=middle;whiteSpace=wrap;rounded=0;" vertex="1" parent="1">
          <mxGeometry x="100" y="190" width="160" height="30" as="geometry" />
        </mxCell>
        <mxCell id="kzASaQrJc4nUuHppkAC4-5" value="" style="endArrow=none;dashed=1;html=1;startArrow=none;" edge="1" parent="1" source="kzASaQrJc4nUuHppkAC4-7">
          <mxGeometry width="50" height="50" relative="1" as="geometry">
            <mxPoint x="264.5" y="730" as="sourcePoint" />
            <mxPoint x="264.5" y="190" as="targetPoint" />
          </mxGeometry>
        </mxCell>
        <mxCell id="kzASaQrJc4nUuHppkAC4-6" value="" style="endArrow=none;dashed=1;html=1;" edge="1" parent="1" target="kzASaQrJc4nUuHppkAC4-7">
          <mxGeometry width="50" height="50" relative="1" as="geometry">
            <mxPoint x="263" y="590" as="sourcePoint" />
            <mxPoint x="264.5" y="190" as="targetPoint" />
          </mxGeometry>
        </mxCell>
        <mxCell id="kzASaQrJc4nUuHppkAC4-7" value="" style="html=1;points=[];perimeter=orthogonalPerimeter;fillColor=#1ba1e2;fontColor=#ffffff;strokeColor=#006EAF;" vertex="1" parent="1">
          <mxGeometry x="260" y="200" width="5" height="240" as="geometry" />
        </mxCell>
        <mxCell id="kzASaQrJc4nUuHppkAC4-8" value="stack:Stack" style="rounded=0;whiteSpace=wrap;html=1;fillColor=#1ba1e2;fontColor=#ffffff;strokeColor=#006EAF;" vertex="1" parent="1">
          <mxGeometry x="202.5" y="130" width="120" height="60" as="geometry" />
        </mxCell>
        <mxCell id="kzASaQrJc4nUuHppkAC4-10" value="alt" style="shape=umlFrame;whiteSpace=wrap;html=1;pointerEvents=0;" vertex="1" parent="1">
          <mxGeometry x="90" y="240" width="360" height="230" as="geometry" />
        </mxCell>
        <mxCell id="kzASaQrJc4nUuHppkAC4-11" value="[!isEmpty()]" style="text;html=1;align=center;verticalAlign=middle;resizable=0;points=[];autosize=1;strokeColor=none;fillColor=none;" vertex="1" parent="1">
          <mxGeometry x="155" y="240" width="80" height="30" as="geometry" />
        </mxCell>
        <mxCell id="kzASaQrJc4nUuHppkAC4-12" value="" style="endArrow=none;dashed=1;html=1;dashPattern=1 3;strokeWidth=2;rounded=0;" edge="1" parent="1">
          <mxGeometry width="50" height="50" relative="1" as="geometry">
            <mxPoint x="83.75" y="410.00000000000006" as="sourcePoint" />
            <mxPoint x="460" y="410.23" as="targetPoint" />
          </mxGeometry>
        </mxCell>
        <mxCell id="kzASaQrJc4nUuHppkAC4-13" value="[else]" style="text;html=1;align=center;verticalAlign=middle;resizable=0;points=[];autosize=1;strokeColor=none;fillColor=none;" vertex="1" parent="1">
          <mxGeometry x="93.75" y="410" width="50" height="30" as="geometry" />
        </mxCell>
        <mxCell id="kzASaQrJc4nUuHppkAC4-18" value="1.1: isEmpty(): boolean&amp;nbsp;" style="text;html=1;strokeColor=none;fillColor=none;align=left;verticalAlign=middle;whiteSpace=wrap;rounded=0;" vertex="1" parent="1">
          <mxGeometry x="265" y="190" width="195" height="30" as="geometry" />
        </mxCell>
        <mxCell id="kzASaQrJc4nUuHppkAC4-19" value="" style="html=1;verticalAlign=bottom;labelBackgroundColor=none;endArrow=block;endFill=1;rounded=0;" edge="1" parent="1">
          <mxGeometry width="160" relative="1" as="geometry">
            <mxPoint x="355" y="230" as="sourcePoint" />
            <mxPoint x="264.99999999999994" y="230" as="targetPoint" />
          </mxGeometry>
        </mxCell>
        <mxCell id="kzASaQrJc4nUuHppkAC4-20" value="" style="endArrow=none;html=1;rounded=0;" edge="1" parent="1">
          <mxGeometry width="50" height="50" relative="1" as="geometry">
            <mxPoint x="264.99999999999994" y="220" as="sourcePoint" />
            <mxPoint x="355" y="220" as="targetPoint" />
          </mxGeometry>
        </mxCell>
        <mxCell id="kzASaQrJc4nUuHppkAC4-21" value="" style="endArrow=none;html=1;rounded=0;" edge="1" parent="1">
          <mxGeometry width="50" height="50" relative="1" as="geometry">
            <mxPoint x="355" y="230" as="sourcePoint" />
            <mxPoint x="355" y="220" as="targetPoint" />
            <Array as="points" />
          </mxGeometry>
        </mxCell>
        <mxCell id="kzASaQrJc4nUuHppkAC4-22" value="" style="html=1;verticalAlign=bottom;labelBackgroundColor=none;endArrow=block;endFill=1;rounded=0;" edge="1" parent="1">
          <mxGeometry width="160" relative="1" as="geometry">
            <mxPoint x="355" y="290" as="sourcePoint" />
            <mxPoint x="264.99999999999994" y="290" as="targetPoint" />
          </mxGeometry>
        </mxCell>
        <mxCell id="kzASaQrJc4nUuHppkAC4-23" value="" style="endArrow=none;html=1;rounded=0;" edge="1" parent="1">
          <mxGeometry width="50" height="50" relative="1" as="geometry">
            <mxPoint x="264.99999999999994" y="280" as="sourcePoint" />
            <mxPoint x="355" y="280" as="targetPoint" />
          </mxGeometry>
        </mxCell>
        <mxCell id="kzASaQrJc4nUuHppkAC4-24" value="" style="endArrow=none;html=1;rounded=0;" edge="1" parent="1">
          <mxGeometry width="50" height="50" relative="1" as="geometry">
            <mxPoint x="355" y="290" as="sourcePoint" />
            <mxPoint x="355" y="280" as="targetPoint" />
            <Array as="points" />
          </mxGeometry>
        </mxCell>
        <mxCell id="kzASaQrJc4nUuHppkAC4-25" value="1.2: LastElement(): boolean&amp;nbsp;" style="text;html=1;strokeColor=none;fillColor=none;align=left;verticalAlign=middle;whiteSpace=wrap;rounded=0;" vertex="1" parent="1">
          <mxGeometry x="265" y="250" width="195" height="30" as="geometry" />
        </mxCell>
        <mxCell id="kzASaQrJc4nUuHppkAC4-26" value="1.3: add(LastElement): boolean&amp;nbsp;" style="text;html=1;strokeColor=none;fillColor=none;align=left;verticalAlign=middle;whiteSpace=wrap;rounded=0;" vertex="1" parent="1">
          <mxGeometry x="265" y="310" width="195" height="30" as="geometry" />
        </mxCell>
        <mxCell id="kzASaQrJc4nUuHppkAC4-27" value="" style="html=1;verticalAlign=bottom;labelBackgroundColor=none;endArrow=block;endFill=1;rounded=0;" edge="1" parent="1">
          <mxGeometry width="160" relative="1" as="geometry">
            <mxPoint x="355.0000000000002" y="350" as="sourcePoint" />
            <mxPoint x="265.00000000000017" y="350" as="targetPoint" />
          </mxGeometry>
        </mxCell>
        <mxCell id="kzASaQrJc4nUuHppkAC4-28" value="" style="endArrow=none;html=1;rounded=0;" edge="1" parent="1">
          <mxGeometry width="50" height="50" relative="1" as="geometry">
            <mxPoint x="265.00000000000017" y="340" as="sourcePoint" />
            <mxPoint x="355.0000000000002" y="340" as="targetPoint" />
          </mxGeometry>
        </mxCell>
        <mxCell id="kzASaQrJc4nUuHppkAC4-29" value="" style="endArrow=none;html=1;rounded=0;" edge="1" parent="1">
          <mxGeometry width="50" height="50" relative="1" as="geometry">
            <mxPoint x="355.0000000000002" y="350" as="sourcePoint" />
            <mxPoint x="355.0000000000002" y="340" as="targetPoint" />
            <Array as="points" />
          </mxGeometry>
        </mxCell>
        <mxCell id="kzASaQrJc4nUuHppkAC4-30" value="1.4: return True" style="text;html=1;strokeColor=none;fillColor=none;align=left;verticalAlign=middle;whiteSpace=wrap;rounded=0;" vertex="1" parent="1">
          <mxGeometry x="102.5" y="370" width="195" height="30" as="geometry" />
        </mxCell>
        <mxCell id="kzASaQrJc4nUuHppkAC4-31" value="1.4: return false" style="text;html=1;strokeColor=none;fillColor=none;align=left;verticalAlign=middle;whiteSpace=wrap;rounded=0;" vertex="1" parent="1">
          <mxGeometry x="101.25" y="430" width="195" height="30" as="geometry" />
        </mxCell>
        <mxCell id="kzASaQrJc4nUuHppkAC4-32" value="" style="html=1;verticalAlign=bottom;labelBackgroundColor=none;endArrow=block;endFill=1;rounded=0;exitX=0.793;exitY=0.995;exitDx=0;exitDy=0;exitPerimeter=0;" edge="1" parent="1" source="kzASaQrJc4nUuHppkAC4-30">
          <mxGeometry width="160" relative="1" as="geometry">
            <mxPoint x="190.00000000000023" y="400" as="sourcePoint" />
            <mxPoint x="100.00000000000017" y="400" as="targetPoint" />
          </mxGeometry>
        </mxCell>
        <mxCell id="kzASaQrJc4nUuHppkAC4-33" value="" style="html=1;verticalAlign=bottom;labelBackgroundColor=none;endArrow=block;endFill=1;rounded=0;exitX=0.793;exitY=0.995;exitDx=0;exitDy=0;exitPerimeter=0;" edge="1" parent="1">
          <mxGeometry width="160" relative="1" as="geometry">
            <mxPoint x="256.25" y="460" as="sourcePoint" />
            <mxPoint x="98.75000000000017" y="460" as="targetPoint" />
          </mxGeometry>
        </mxCell>
      </root>
    </mxGraphModel>
  </diagram>
</mxfile>
